<?xml version="1.0" encoding="utf-8" ?><svg xmlns="http://www.w3.org/2000/svg" xmlns:xlink="http://www.w3.org/1999/xlink" width="460" height="460" viewBox="0 0 460 460"><clipPath id="cl_3"><rect x="-6.1035156e-05" width="460" height="460"/></clipPath><g clip-path="url(#cl_3)"><path fill="#F66D2A" transform="matrix(0.985011 0 0 1.06236 -277.773 -220.97)" d="M682.997 381.16C689.169 381.407 692.327 383.982 695.651 389.341C702.499 400.383 709.014 413.875 708.875 427.172C708.809 433.515 707.394 440.028 708.054 446.446C708.802 453.938 712.049 464.528 710.208 471.894C708.494 478.75 702.582 489.246 698.925 495.538C690.683 509.722 687.276 522.129 670.368 527.554C666.03 528.946 657.161 532.41 653.026 534.377C650.196 535.722 644.087 540.862 640.946 542.865C626.476 552.092 607.181 547.273 591.377 543.676C580.343 541.255 561.302 537.606 556.634 526.094C559.121 515.427 571.996 492.546 579.079 483.405C582.102 479.503 587.88 475.926 591.347 470.32C594.802 464.735 597.663 451.929 601.27 448.075C605.347 443.718 617.033 438.377 622.869 434.306L623.511 433.853C625.048 428.196 627.811 417.18 631.16 412.841C644.086 396.094 662.867 385.225 682.997 381.16ZM626.455 436.883C620.255 442.245 611.807 444.84 606.149 450.183C601.498 455.682 601.125 464.712 597.224 470.557C593.538 475.924 587.597 479.594 583.415 484.5C575.653 493.603 569.97 504.214 564.659 514.86C560.586 523.024 559.631 530.719 571.073 531.837C588.29 528.35 616.414 509.53 631.995 499.024L632.224 498.396C634.176 492.873 636.346 479.881 639.278 475.768C646.666 465.492 661.187 458.44 669.058 449.008C677.584 438.791 681.032 419.332 685.371 406.796C688.08 398.97 694.853 383.943 680.797 385.061C664.789 388.744 643.56 400.927 634.202 415.049C631.715 418.801 628.373 431.766 626.455 436.883Z"/><path fill="#F66D2A" transform="matrix(0.985011 0 0 1.06236 -277.773 -220.97)" d="M414.273 328.813C416.556 329.294 419.955 334.33 421.857 336.211C434.755 348.958 435.259 363.924 438.257 381.106C451.829 387.989 465.157 395.34 478.904 401.875C481.94 403.318 484.957 404.762 487.819 406.532C491.497 415.285 494.939 424.505 498.382 433.38C523.732 444.451 552.198 452.305 578.272 464.327C573.699 470.422 569.332 477.625 564.618 483.98C551.609 501.574 535.585 516.723 517.291 528.727C508.234 534.598 499.902 537.726 489.817 541.26C485.618 531.051 470.074 483.814 466.283 479.257C459.199 470.742 445.771 463.732 436.253 457.757C436.014 457.103 435.559 455.719 435.38 455.045C427.548 425.469 422.576 427.854 397.599 414.424C394.919 408.667 391.957 398.245 386.561 394.876C379.524 390.484 371.522 386.31 364.311 381.946C379.724 358.684 392.902 346.179 414.273 328.813Z"/><path fill="#F66D2A" transform="matrix(0.985011 0 0 1.06236 -277.773 -220.97)" d="M490.024 295.745C497.928 295.123 512.285 298.751 519.494 301.741C520.964 312.318 522.142 321.722 525.23 332.135C530.732 336.591 537.7 340.824 543.596 345.397C545.921 353.294 546.676 361.976 548.676 370.09C570.179 381.448 592.066 394.389 610.403 410.456C603.417 421.858 591.519 439.318 582.404 448.958C575.963 447.648 560.747 441.79 553.981 439.354C543.935 435.773 519.356 427.86 511.181 423.466C507.683 418.043 503.192 404.945 500.177 398.197C484.449 389.74 467.799 382.368 451.758 373.866C447.95 363.434 447.513 350.82 441.449 341.367C436.773 334.079 429.788 327.411 423.685 321.257C443.439 307.079 466.031 298.897 490.024 295.745Z"/><path fill="#F66D2A" transform="matrix(0.985011 0 0 1.06236 -277.773 -220.97)" d="M360.398 389.3C364.274 390.047 378.235 399.101 382.07 401.509C384.788 408.036 387.094 414.728 388.972 421.544C398.46 427.725 407.232 432.359 416.752 439.192C419.52 448.252 421.562 457.157 424.587 466.507C430.067 469.264 451.457 483.221 454.408 488.069C462.831 501.909 470.793 528.361 476.001 544.098C467.493 546.72 459.167 548.344 450.381 549.63C444.43 550.704 438.496 550.767 432.826 551.14C418.33 552.562 407.802 546.981 395.578 539.467C385.319 533.161 366.825 526.181 359.064 517.078C353.332 510.354 351.104 496.855 347.011 488.784C343.377 481.616 338.001 474.591 335.788 466.819C331.154 441.108 348.497 410.423 360.398 389.3Z"/><path fill="#F66D2A" transform="matrix(0.985011 0 0 1.06236 -277.773 -220.97)" d="M527.664 303.957L528.352 303.96C543.344 304.132 565.03 306.959 574.86 319.285C580.772 326.699 584.228 335.407 593.222 339.738C614.48 349.976 613.443 375.08 613.022 395.127C608.956 393.918 595.708 385.587 591.562 383.057C580.908 376.487 570.189 370.022 559.407 363.663C557.502 356.027 555.844 347.542 554.174 339.797C547.787 335.629 539.032 330.094 533.181 325.379C531.117 318.227 529.424 311.19 527.664 303.957Z"/></g></svg>